<?xml version="1.0" encoding="UTF-8"?>
<svg xmlns="http://www.w3.org/2000/svg" xmlns:xlink="http://www.w3.org/1999/xlink" viewBox="0 0 24 24" width="24px" height="24px">
<g id="surface12463632">
<path style="fill-rule:nonzero;fill:rgb(80.000001%,80.000001%,80.000001%);fill-opacity:1;stroke-width:10;stroke-linecap:butt;stroke-linejoin:round;stroke:rgb(80.000001%,80.000001%,80.000001%);stroke-opacity:1;stroke-miterlimit:10;" d="M 182.041667 138.625 L 149.333333 138.625 L 149.333333 234.666667 L 106.666667 234.666667 L 106.666667 138.666667 L 74.666667 138.666667 L 74.666667 96 L 106.666667 96 L 106.666667 71.458333 C 106.666667 39 127.791667 21.333333 156.708333 21.333333 C 166.5 21.291667 176.25 21.791667 185.916667 22.791667 L 185.916667 56.708333 L 166 56.708333 C 150.25 56.708333 149.333333 63.666667 149.333333 74.666667 L 149.333333 96 L 186.916667 96 Z M 182.041667 138.625 " transform="matrix(0.09375,0,0,0.09375,0,0)"/>
<path style=" stroke:none;fill-rule:nonzero;fill:rgb(80.000001%,80.000001%,80.000001%);fill-opacity:1;" d="M 17.523438 9 L 14 9 L 14 7 C 14 5.96875 14.085938 5.316406 15.5625 5.316406 L 17.429688 5.316406 L 17.429688 2.136719 C 16.523438 2.042969 15.609375 1.996094 14.691406 2 C 11.980469 2 10 3.65625 10 6.699219 L 10 9 L 7 9 L 7 13 L 10 13 L 10 22 L 14 22 L 14 12.996094 L 17.066406 12.996094 Z M 17.523438 9 "/>
</g>
</svg>
