<?xml version="1.0" encoding="UTF-8"?>
<svg xmlns="http://www.w3.org/2000/svg" xmlns:xlink="http://www.w3.org/1999/xlink" viewBox="0 0 50 50" width="50px" height="50px">
<g id="surface12521781">
<path style=" stroke:none;fill-rule:nonzero;fill:rgb(80.000001%,80.000001%,80.000001%);fill-opacity:1;" d="M 25 8 C 34.390625 8 42 15.609375 42 25 C 42 34.390625 34.390625 42 25 42 C 23.179688 42 21.425781 41.707031 19.78125 41.175781 C 20.316406 40.332031 21.835938 37.648438 22.226562 36.191406 C 22.429688 35.4375 23.234375 32.355469 23.234375 32.355469 C 23.757812 33.359375 25.296875 34.207031 26.933594 34.207031 C 31.800781 34.207031 35.308594 29.730469 35.308594 24.164062 C 35.308594 18.832031 30.957031 14.84375 25.355469 14.84375 C 18.390625 14.84375 14.691406 19.519531 14.691406 24.613281 C 14.691406 26.980469 15.949219 29.929688 17.96875 30.867188 C 18.273438 31.007812 18.4375 30.945312 18.507812 30.648438 C 18.558594 30.425781 18.832031 29.328125 18.953125 28.820312 C 18.992188 28.65625 18.976562 28.515625 18.84375 28.355469 C 18.175781 27.546875 17.640625 26.058594 17.640625 24.671875 C 17.640625 21.109375 20.339844 17.664062 24.933594 17.664062 C 28.898438 17.664062 31.675781 20.367188 31.675781 24.234375 C 31.675781 28.601562 29.46875 31.628906 26.601562 31.628906 C 25.015625 31.628906 23.828125 30.316406 24.210938 28.710938 C 24.664062 26.789062 25.546875 24.71875 25.546875 23.335938 C 25.546875 22.09375 24.882812 21.0625 23.503906 21.0625 C 21.882812 21.0625 20.582031 22.738281 20.582031 24.980469 C 20.582031 26.410156 21.066406 27.378906 21.066406 27.378906 C 21.066406 27.378906 19.464844 34.144531 19.171875 35.402344 C 18.894531 36.597656 19.058594 39.941406 19.144531 40.945312 C 12.644531 38.554688 8 32.328125 8 25 C 8 15.609375 15.609375 8 25 8 Z M 25 8 "/>
</g>
</svg>
