<?xml version="1.0" encoding="UTF-8"?>
<svg xmlns="http://www.w3.org/2000/svg" xmlns:xlink="http://www.w3.org/1999/xlink" viewBox="0 0 32 32" width="32px" height="32px">
<g id="surface12678722">
<path style=" stroke:none;fill-rule:nonzero;fill:rgb(80.000001%,80.000001%,80.000001%);fill-opacity:1;" d="M 5 5 L 5 9 C 14.929688 9 23 17.070312 23 27 L 27 27 C 27 14.851562 17.148438 5 5 5 Z M 5 12 L 5 16 C 11.070312 16 16 20.929688 16 27 L 20 27 C 20 18.71875 13.28125 12 5 12 Z M 8 21 C 6.34375 21 5 22.34375 5 24 C 5 25.65625 6.34375 27 8 27 C 9.65625 27 11 25.65625 11 24 C 11 22.34375 9.65625 21 8 21 Z M 8 21 "/>
</g>
</svg>
