<?xml version="1.0" encoding="iso-8859-1"?>
<!-- Generator: Adobe Illustrator 19.0.0, SVG Export Plug-In . SVG Version: 6.00 Build 0)  -->
<svg version="1.1" id="Layer_1" xmlns="http://www.w3.org/2000/svg" xmlns:xlink="http://www.w3.org/1999/xlink" x="0px" y="0px"
	 viewBox="0 0 512.001 512.001" style="enable-background:new 0 0 512.001 512.001;" xml:space="preserve">
<g>
	<g>
		<path d="M328.263,0C226.788,0.01,144.548,82.25,144.538,183.724c0.004,44.722,16.011,85.68,42.567,117.537l-37.69,37.69
			c-0.15,0.15-0.174,0.322-0.316,0.473c-18.601-8.795-41.378-5.979-56.723,9.364L14.67,426.463c-19.54,19.541-19.54,51.314,0,70.854
			c19.577,19.577,51.277,19.577,70.854,0l77.707-77.674c15.385-15.385,18.193-38.157,9.348-56.765
			c0.147-0.139,0.312-0.161,0.457-0.306l37.69-37.69c31.857,26.555,72.815,42.561,117.537,42.565
			c101.475-0.01,183.714-82.25,183.724-183.722C511.977,82.25,429.738,0.01,328.263,0z M328.263,300.638
			c-64.517-0.03-116.885-52.398-116.916-116.913c0.03-64.517,52.398-116.887,116.916-116.916
			c64.517,0.029,116.885,52.398,116.916,116.916C445.147,248.24,392.78,300.608,328.263,300.638z"/>
	</g>
</g>
<g>
</g>
<g>
</g>
<g>
</g>
<g>
</g>
<g>
</g>
<g>
</g>
<g>
</g>
<g>
</g>
<g>
</g>
<g>
</g>
<g>
</g>
<g>
</g>
<g>
</g>
<g>
</g>
<g>
</g>
</svg>
