<svg width="12" height="18" viewBox="0 0 12 18" fill="none" xmlns="http://www.w3.org/2000/svg">
<path d="M9.96998 4.80492C9.84745 4.30719 9.64325 3.47763 8.7039 2.81399C8.00959 2.31626 7.11109 2.25404 6.58015 2.25404C4.57892 2.25404 3.53747 3.31172 3.53747 4.7427C3.53747 6.67141 5.47743 7.37653 6.62099 7.66688C9.54114 8.43421 11.8895 9.05638 11.8895 12.3953C11.8895 14.9255 10.1538 17.7459 5.59996 17.7459C2.94527 17.7459 1.10741 16.6053 0.760262 16.3564C1.1891 15.5476 1.45456 14.1374 1.51583 13.7019L1.90382 13.5982C2.12845 14.1581 2.45518 15.0706 3.68042 15.7965C4.49724 16.2942 5.35491 16.4187 6.06963 16.4187C7.78497 16.4187 9.37778 15.5891 9.37778 13.6811C9.37778 11.7939 8.25464 11.4206 4.82397 10.28C3.41495 9.80297 1.08699 8.78677 1.08699 5.8626C1.08699 3.97537 2.23055 0.906021 6.76393 0.906021C9.03063 0.906021 10.3376 1.61114 11.0931 2.00518C10.7664 2.87621 10.5418 3.66428 10.4397 4.80492H9.96998Z" fill="white"/>
</svg>
