<svg width="18" height="26" viewBox="0 0 18 26" fill="none" xmlns="http://www.w3.org/2000/svg">
<path d="M5.56013 4.28646C4.90667 5.11601 4.21237 6.31886 4.21237 9.61634C4.21237 12.5405 4.86583 13.6397 5.56013 14.4692C6.39738 15.5062 7.52052 16.1076 9.03165 16.1076C13.708 16.1076 13.708 10.4874 13.708 9.40895C13.708 4.39015 11.3392 2.56514 9.21543 2.56514C7.45926 2.5444 6.3157 3.31173 5.56013 4.28646ZM9.62385 17.7874C6.54033 17.7874 4.80457 16.0661 4.27363 14.6973C4.27363 19.9235 4.23279 22.9514 4.437 26C3.9469 25.8756 3.51807 25.8134 2.72166 25.8134C1.90484 25.8134 1.476 25.8756 0.965485 26C1.23095 21.6863 1.33306 17.3104 1.33306 12.9968C1.33306 9.96889 1.27179 5.88335 1.16969 1.0512C1.61895 1.1549 2.14988 1.23785 2.78292 1.23785C3.37512 1.23785 3.92649 1.13416 4.39616 1.0512C4.27364 2.87622 4.27363 3.37395 4.27363 4.07907C4.80457 3.20804 6.2136 0.885292 9.84847 0.885292C13.1158 0.885292 17.1182 3.31173 17.1182 9.24304C17.0978 14.49 13.9122 17.7874 9.62385 17.7874Z" fill="white"/>
</svg>
