<svg width="16" height="18" viewBox="0 0 16 18" fill="none" xmlns="http://www.w3.org/2000/svg">
<path d="M12.2052 7.81205C12.2052 6.71289 12.2052 2.29553 8.28446 2.29553C5.42557 2.29553 4.05739 4.49384 3.75108 7.81205H12.2052ZM3.73065 9.20155C3.73065 10.1348 3.73065 12.022 4.60874 13.5567C6.11987 16.0661 8.24362 16.1491 9.20339 16.1491C12.4094 16.1491 13.9206 14.1581 14.4107 13.453L14.7987 13.536C14.5944 14.4692 14.5944 15.0084 14.574 15.5269C13.1242 16.9164 11.1434 17.7045 8.48867 17.7045C3.50603 17.7045 0.463348 14.5107 0.463348 9.3882C0.463348 4.80492 2.95467 0.947502 8.3253 0.947502C15.6359 0.947502 15.5338 7.39728 15.493 9.20155H3.73065Z" fill="white"/>
</svg>
