<svg width="22" height="24" viewBox="0 0 22 24" fill="none" xmlns="http://www.w3.org/2000/svg">
<path d="M9.92444 4.66623L6.49377 12.8995H13.4776L9.92444 4.66623ZM5.84031 14.5794C5.18685 16.1141 3.87993 19.0797 2.79763 23.2897C2.40964 23.2275 2.08291 23.103 1.44987 23.103C0.816827 23.103 0.428834 23.2275 0 23.2897C2.92016 16.8399 7.75985 5.99352 10.0878 0C10.3533 0.0414776 10.5575 0.103694 10.9046 0.103694C11.1905 0.103694 11.3743 0.0622165 11.6194 0C14.1311 6.98898 21.3804 23.1653 21.4417 23.2897C20.8903 23.186 20.3186 23.103 19.5017 23.103C18.6441 23.103 18.0314 23.2067 17.3984 23.2897C16.2548 19.3078 14.9071 16.4044 14.0903 14.5794H5.84031Z" fill="white"/>
</svg>
