<?xml version="1.0" encoding="iso-8859-1"?>
<!-- Generator: Adobe Illustrator 16.0.0, SVG Export Plug-In . SVG Version: 6.00 Build 0)  -->
<!DOCTYPE svg PUBLIC "-//W3C//DTD SVG 1.1//EN" "http://www.w3.org/Graphics/SVG/1.1/DTD/svg11.dtd">
<svg version="1.1" id="Capa_1" xmlns="http://www.w3.org/2000/svg" xmlns:xlink="http://www.w3.org/1999/xlink" x="0px" y="0px"
	 width="314.063px" height="314.063px" viewBox="0 0 314.063 314.063" style="enable-background:new 0 0 314.063 314.063;"
	 xml:space="preserve">
<g>
	<g id="_x35_00._Down">
		<g>
			<path d="M235.532,21.063C160.437-22.289,64.413,3.431,21.062,78.53C-22.294,153.615,3.43,249.643,78.527,293.007
				c75.087,43.345,171.119,17.617,214.476-57.47C336.363,160.438,310.619,64.41,235.532,21.063z M265.8,219.836
				c-34.688,60.075-111.503,80.653-171.574,45.961C34.157,231.116,13.564,154.306,48.249,94.231
				c34.683-60.082,111.507-80.666,171.578-45.975C279.898,82.932,300.484,159.756,265.8,219.836z M190.333,126.415l-33.302,33.31
				l-33.308-33.31c-6.125-6.118-16.072-6.118-22.201,0c-6.133,6.133-6.133,16.078,0,22.209l44.408,44.407
				c6.125,6.131,16.072,6.131,22.202,0.004l44.402-44.411c6.127-6.131,6.127-16.076,0-22.209
				C206.41,120.289,196.459,120.289,190.333,126.415z"/>
		</g>
	</g>
</g>
<g>
</g>
<g>
</g>
<g>
</g>
<g>
</g>
<g>
</g>
<g>
</g>
<g>
</g>
<g>
</g>
<g>
</g>
<g>
</g>
<g>
</g>
<g>
</g>
<g>
</g>
<g>
</g>
<g>
</g>
</svg>
